<?xml version="1.0" encoding="utf-8"?>
<svg viewBox="8.565 11.918 47.67 35.81" xmlns="http://www.w3.org/2000/svg">
  <g stroke="null" data-name="Camada 4" id="Camada_4" transform="matrix(1, 0, 0, 1, 8.400574, 5.823277)">
    <path stroke="null" id="svg_1" d="m42.88951,9.5519l-25.76523,0c-2.02208,0 -4.23985,0.4566 -4.76168,-2.47868c-0.13046,-0.78274 -1.10888,-0.97843 -1.89162,-0.97843l-8.15356,0c-1.23934,0 -2.15254,0.4566 -2.15254,1.8264s0.97843,1.89162 2.08731,2.02208a15.71353,15.71353 0 0 0 3.91371,0c2.34822,-0.26091 3.45711,0.58706 4.10939,2.93528c1.8264,6.39239 3.97893,12.58909 5.87056,18.98148c0.65228,2.08731 1.69594,3.06574 3.91371,2.93528c3.26142,-0.13046 6.52284,-0.06523 9.78427,-0.06523l10.76269,0c1.3698,0 2.73959,-0.19569 2.80482,-1.95685s-1.23934,-2.02208 -2.67437,-1.95685l-5.54442,0c-4.43553,0 -8.9363,-0.06523 -13.37183,0c-2.34822,0 -2.60914,-1.8264 -2.73959,-3.32665c-0.13046,-2.02208 1.69594,-1.17411 2.60914,-1.17411c6.39239,-0.06523 12.78477,-0.06523 19.24239,0c2.80482,0 4.50076,-1.04366 4.95736,-3.97893c0.39137,-2.34822 1.04366,-4.63122 1.56548,-6.97944c1.04366,-4.50076 0.06523,-5.80533 -4.56599,-5.80533zm-0.71751,11.21929a1.53939,1.53939 0 0 1 -1.63071,1.63071l-21.52539,0c-1.17411,0 -1.95685,-0.52183 -1.95685,-1.63071c0,-1.50025 1.30457,-0.78274 1.95685,-0.84797c3.58756,-0.06523 7.17513,-0.06523 10.76269,-0.06523l10.76269,0c0.58706,0 1.76117,-0.4566 1.63071,0.9132zm-0.52183,-4.76168l-24.78681,0c-0.97843,0 -1.8264,-0.19569 -1.89162,-1.30457c-0.06523,-1.43503 1.10888,-1.04366 1.8264,-1.04366c4.10939,-0.06523 8.28401,0 12.3934,0l12.3934,0c0.71751,0 1.95685,-0.32614 1.89162,1.04366c0,1.10888 -0.84797,1.30457 -1.8264,1.30457z" class="cls-1" style=""/>
    <path stroke="null" id="svg_2" d="m40.47606,39.10038c-0.19569,1.69594 -1.17411,2.73959 -2.73959,2.73959a2.6548,2.6548 0 0 1 -2.80482,-2.87005a2.55043,2.55043 0 0 1 3.00051,-2.60914a2.60914,2.60914 0 0 1 2.54391,2.73959z" class="cls-1" style=""/>
    <path stroke="null" id="svg_3" d="m23.71235,39.16561c0,1.76117 -1.10888,2.47868 -2.67437,2.73959c-1.56548,-0.26091 -2.67437,-1.04366 -2.73959,-2.73959c-0.06523,-1.8264 1.04366,-2.87005 2.87005,-2.80482c1.63071,0.06523 2.60914,1.04366 2.54391,2.80482z" class="cls-1" style=""/>
  </g>
</svg>