<svg width="127.5" height="91.1" xmlns="http://www.w3.org/2000/svg" xml:space="preserve" version="1.1">

 <g>
  <title>Layer 1</title>
  <path id="svg_16" fill="#EFD621" d="m115.6,38.2c-0.8,0.6 -1.6,1.2 -2.3,1.9c-0.2,0.1 -0.3,0.3 -0.5,0.5c-0.6,0.5 -1.1,1 -1.6,1.6c0,0 0,0.1 -0.1,0.1c-0.7,0.7 -1.4,1.5 -1.9,2.3c-0.3,0.4 -0.6,0.8 -0.9,1.2c-0.3,0.4 -0.6,0.8 -0.9,1.2c-0.3,0.4 -0.6,0.9 -0.8,1.3c0,0 0,0.1 -0.1,0.1c-0.4,0.6 -0.8,1.3 -1.1,2.1c-0.2,0.4 -0.4,0.8 -0.6,1.2c-0.3,0.6 -0.6,1.3 -0.9,2.1c-0.3,0.9 -0.7,1.9 -1,3c0,0.2 -0.1,0.3 -0.1,0.5c0,0.2 -0.1,0.3 -0.1,0.5c0,0.1 -0.1,0.2 -0.1,0.3c-0.2,0.7 -0.3,1.5 -0.5,2.2c-0.4,2.1 -0.6,4.3 -0.6,6.5c0,5.4 1.2,10.5 3.3,15.2l-85,0c2.2,-4.7 3.4,-9.9 3.4,-15.3c0,-2.2 -0.2,-4.4 -0.6,-6.5c-0.9,-4.7 -2.6,-9.1 -5.1,-13c-2.2,-3.4 -5,-6.5 -8.2,-9c1.7,-0.9 3.7,-1.4 5.8,-1.4c6.3,0 11.5,4.5 12.7,10.4l0.9,0c1.7,-5.1 6.5,-8.8 12.2,-8.8c0.3,0 0.6,0 0.9,0c0.8,0 1.6,0.2 2.3,0.4c-1.3,0.5 -2.5,1.2 -3.6,2.1c-1.9,1.6 -3.2,3.7 -3.8,6.2c0,0.2 -0.1,0.4 -0.1,0.6c-0.1,0.6 -0.2,1.2 -0.2,1.9c0,1.2 0.2,2.5 0.6,3.6l0,0c0.6,1.8 1.5,3.3 2.8,4.6c0.3,0.3 0.5,0.5 0.8,0.7c0.7,0.3 1.5,0.5 2.3,0.5c3.3,0 5.9,-2.7 5.9,-5.9c0,-2.5 -1.5,-4.6 -3.6,-5.5c3.5,1.2 6.4,3.8 7.8,7.2c0.6,1.5 1,3.1 1,4.7c0,0.1 0,0.2 0,0.3c0,4.1 -1.9,7.8 -5,10.2c3.8,2.5 8.4,4 13.3,4c4.9,0 9.4,-1.5 13.2,-4c-3.1,-2.4 -5,-6.1 -5,-10.2c0,-0.1 0,-0.2 0,-0.3c0,-1.7 0.4,-3.3 1,-4.8c0,0 0,0 0,0c1.4,-3.4 4.3,-6 7.8,-7.1c-2.1,0.9 -3.6,3.1 -3.6,5.5c0,3.3 2.7,5.9 5.9,5.9c0.8,0 1.6,-0.2 2.3,-0.5c0.3,-0.3 0.6,-0.6 0.9,-0.9c1.3,-1.3 2.2,-2.8 2.8,-4.6c0.3,-1.1 0.5,-2.2 0.5,-3.4c0,-0.6 0,-1.3 -0.2,-1.9l0,0c0,-0.2 0,-0.4 -0.1,-0.6c-0.6,-2.4 -1.9,-4.5 -3.7,-6.1c0,0 0,0 0,0c-1.1,-1 -2.3,-1.8 -3.7,-2.2c0.8,-0.2 1.6,-0.3 2.4,-0.4c0.3,0 0.6,0 0.9,0c5.6,0 10.5,3.7 12.1,8.8l0.9,0c1.2,-5.9 6.4,-10.4 12.7,-10.4c2.4,-0.1 4.4,0.4 6.2,1.4z" class="st1"/>
  <path id="svg_17" fill="#EFD621" d="m76,35.4c-1.1,0.5 -2.2,1.2 -3.2,2c-0.1,0.1 -0.1,0.1 -0.2,0.2c-1.6,1.3 -2.9,2.8 -3.9,4.5c-1.9,2.9 -2.9,6.3 -2.9,10c0,2.2 0.4,4.2 1.1,6.2c0.6,2 1.7,3.8 2.9,5.4c-0.6,0.5 -1.3,0.9 -2,1.2l0,0c-1.6,0.8 -3.4,1.2 -5.3,1.2c-1.7,0 -3.4,-0.3 -4.9,-0.9c-0.8,-0.3 -1.6,-0.8 -2.2,-1.3c1.4,-1.7 2.5,-3.8 3.2,-6c0.6,-1.8 0.9,-3.8 0.9,-5.8c0,-3.7 -1.1,-7.2 -3,-10.1c-0.7,-1.2 -1.6,-2.2 -2.5,-3.2c0,0 -0.1,-0.1 -0.1,-0.1l0,0c-0.9,-0.9 -1.9,-1.6 -2.9,-2.3c0,0 0,0 -0.1,-0.1c-0.3,-0.3 -0.7,-0.5 -1.1,-0.6l0,-0.6c0.1,-10.6 5.3,-20 13.2,-25.9c7.6,5.7 12.7,14.6 13.1,24.8c-0.1,0.5 -0.1,1 -0.1,1.4z" class="st1"/>
 </g>
</svg>